<?xml version="1.0" encoding="us-ascii" standalone="no"?><svg xmlns="http://www.w3.org/2000/svg" xmlns:xlink="http://www.w3.org/1999/xlink" contentStyleType="text/css" height="910px" preserveAspectRatio="none" style="width:1152px;height:910px;background:#FFFFFF;" version="1.1" viewBox="0 0 1152 910" width="1152px" zoomAndPan="magnify"><defs/><g><!--class Refuge--><g id="elem_Refuge"><rect codeLine="1" fill="#F1F1F1" height="243.5625" id="Refuge" rx="2.5" ry="2.5" style="stroke:#181818;stroke-width:0.5;" width="125" x="639.5" y="262"/><ellipse cx="673.85" cy="278" fill="#ADD1B2" rx="11" ry="11" style="stroke:#181818;stroke-width:1.0;"/><path d="M677.9594,284 L670.2406,284 L670.2406,271.6094 L677.9594,271.6094 L677.9594,273.7656 L672.6938,273.7656 L672.6938,276.4375 L677.4594,276.4375 L677.4594,278.5938 L672.6938,278.5938 L672.6938,281.8438 L677.9594,281.8438 L677.9594,284 Z " fill="#000000"/><text fill="#000000" font-family="sans-serif" font-size="14" lengthAdjust="spacing" textLength="50" x="692.15" y="282.8467">Refuge</text><line style="stroke:#181818;stroke-width:0.5;" x1="640.5" x2="763.5" y1="294" y2="294"/><ellipse cx="650.5" cy="307.6484" fill="#000000" rx="3" ry="3" style="stroke:#000000;stroke-width:1.0;"/><text fill="#000000" font-family="sans-serif" font-size="14" lengthAdjust="spacing" textLength="41" x="659.5" y="310.9951">e-mail</text><line style="stroke:#181818;stroke-width:1.0;" x1="640.5" x2="763.5" y1="318.2969" y2="318.2969"/><ellipse cx="650.5" cy="331.9453" fill="#000000" rx="3" ry="3" style="stroke:#000000;stroke-width:1.0;"/><text fill="#000000" font-family="sans-serif" font-size="14" lengthAdjust="spacing" textLength="31" x="659.5" y="335.292">nom</text><ellipse cx="650.5" cy="348.2422" fill="#000000" rx="3" ry="3" style="stroke:#000000;stroke-width:1.0;"/><text fill="#000000" font-family="sans-serif" font-size="14" lengthAdjust="spacing" textLength="52" x="659.5" y="351.5889">numTel</text><ellipse cx="650.5" cy="364.5391" fill="#000000" rx="3" ry="3" style="stroke:#000000;stroke-width:1.0;"/><text fill="#000000" font-family="sans-serif" font-size="14" lengthAdjust="spacing" textLength="54" x="659.5" y="367.8857">secGeo</text><ellipse cx="650.5" cy="380.8359" fill="#000000" rx="3" ry="3" style="stroke:#000000;stroke-width:1.0;"/><text fill="#000000" font-family="sans-serif" font-size="14" lengthAdjust="spacing" textLength="58" x="659.5" y="384.1826">dateOuv</text><ellipse cx="650.5" cy="397.1328" fill="#000000" rx="3" ry="3" style="stroke:#000000;stroke-width:1.0;"/><text fill="#000000" font-family="sans-serif" font-size="14" lengthAdjust="spacing" textLength="75" x="659.5" y="400.4795">dateFerme</text><ellipse cx="650.5" cy="413.4297" fill="#000000" rx="3" ry="3" style="stroke:#000000;stroke-width:1.0;"/><text fill="#000000" font-family="sans-serif" font-size="14" lengthAdjust="spacing" textLength="67" x="659.5" y="416.7764">nbrRepas</text><ellipse cx="650.5" cy="429.7266" fill="#000000" rx="3" ry="3" style="stroke:#000000;stroke-width:1.0;"/><text fill="#000000" font-family="sans-serif" font-size="14" lengthAdjust="spacing" textLength="69" x="659.5" y="433.0732">nbrDormir</text><ellipse cx="650.5" cy="446.0234" fill="#000000" rx="3" ry="3" style="stroke:#000000;stroke-width:1.0;"/><text fill="#000000" font-family="sans-serif" font-size="14" lengthAdjust="spacing" textLength="35" x="659.5" y="449.3701">texte</text><ellipse cx="650.5" cy="462.3203" fill="#000000" rx="3" ry="3" style="stroke:#000000;stroke-width:1.0;"/><text fill="#000000" font-family="sans-serif" font-size="14" lengthAdjust="spacing" textLength="99" x="659.5" y="465.667">typePayement</text><ellipse cx="650.5" cy="478.6172" fill="#000000" rx="3" ry="3" style="stroke:#000000;stroke-width:1.0;"/><text fill="#000000" font-family="sans-serif" font-size="14" lengthAdjust="spacing" textLength="60" x="659.5" y="481.9639">prixNuite</text><ellipse cx="650.5" cy="494.9141" fill="#000000" rx="3" ry="3" style="stroke:#000000;stroke-width:1.0;"/><text fill="#000000" font-family="sans-serif" font-size="14" lengthAdjust="spacing" textLength="24" x="659.5" y="498.2607">prix</text></g><!--class Repas--><g id="elem_Repas"><rect codeLine="17" fill="#F1F1F1" height="64.2969" id="Repas" rx="2.5" ry="2.5" style="stroke:#181818;stroke-width:0.5;" width="100" x="595" y="839"/><ellipse cx="620.8" cy="855" fill="#ADD1B2" rx="11" ry="11" style="stroke:#181818;stroke-width:1.0;"/><path d="M624.9094,861 L617.1906,861 L617.1906,848.6094 L624.9094,848.6094 L624.9094,850.7656 L619.6438,850.7656 L619.6438,853.4375 L624.4094,853.4375 L624.4094,855.5938 L619.6438,855.5938 L619.6438,858.8438 L624.9094,858.8438 L624.9094,861 Z " fill="#000000"/><text fill="#000000" font-family="sans-serif" font-size="14" lengthAdjust="spacing" textLength="44" x="637.2" y="859.8467">Repas</text><line style="stroke:#181818;stroke-width:0.5;" x1="596" x2="694" y1="871" y2="871"/><ellipse cx="606" cy="884.6484" fill="#000000" rx="3" ry="3" style="stroke:#000000;stroke-width:1.0;"/><text fill="#000000" font-family="sans-serif" font-size="14" lengthAdjust="spacing" textLength="74" x="615" y="887.9951">typeRepas</text><line style="stroke:#181818;stroke-width:1.0;" x1="596" x2="694" y1="895.2969" y2="895.2969"/></g><!--class Prix--><g id="elem_Prix"><rect codeLine="23" fill="#F1F1F1" height="64.2969" id="Prix" rx="2.5" ry="2.5" style="stroke:#181818;stroke-width:0.5;" width="56" x="730" y="839"/><ellipse cx="745" cy="855" fill="#ADD1B2" rx="11" ry="11" style="stroke:#181818;stroke-width:1.0;"/><path d="M749.1094,861 L741.3906,861 L741.3906,848.6094 L749.1094,848.6094 L749.1094,850.7656 L743.8438,850.7656 L743.8438,853.4375 L748.6094,853.4375 L748.6094,855.5938 L743.8438,855.5938 L743.8438,858.8438 L749.1094,858.8438 L749.1094,861 Z " fill="#000000"/><text fill="#000000" font-family="sans-serif" font-size="14" lengthAdjust="spacing" textLength="24" x="759" y="859.8467">Prix</text><line style="stroke:#181818;stroke-width:0.5;" x1="731" x2="785" y1="871" y2="871"/><ellipse cx="741" cy="884.6484" fill="#000000" rx="3" ry="3" style="stroke:#000000;stroke-width:1.0;"/><text fill="#000000" font-family="sans-serif" font-size="14" lengthAdjust="spacing" textLength="24" x="750" y="887.9951">prix</text><line style="stroke:#181818;stroke-width:0.5;" x1="731" x2="785" y1="895.2969" y2="895.2969"/></g><!--class Formation--><g id="elem_Formation"><rect codeLine="27" fill="#F1F1F1" height="194.6719" id="Formation" rx="2.5" ry="2.5" style="stroke:#181818;stroke-width:0.5;" width="101" x="844.5" y="286.5"/><ellipse cx="859.5" cy="302.5" fill="#ADD1B2" rx="11" ry="11" style="stroke:#181818;stroke-width:1.0;"/><path d="M863.6094,308.5 L855.8906,308.5 L855.8906,296.1094 L863.6094,296.1094 L863.6094,298.2656 L858.3438,298.2656 L858.3438,300.9375 L863.1094,300.9375 L863.1094,303.0938 L858.3438,303.0938 L858.3438,306.3438 L863.6094,306.3438 L863.6094,308.5 Z " fill="#000000"/><text fill="#000000" font-family="sans-serif" font-size="14" lengthAdjust="spacing" textLength="69" x="873.5" y="307.3467">Formation</text><line style="stroke:#181818;stroke-width:0.5;" x1="845.5" x2="944.5" y1="318.5" y2="318.5"/><ellipse cx="855.5" cy="332.1484" fill="#000000" rx="3" ry="3" style="stroke:#000000;stroke-width:1.0;"/><text fill="#000000" font-family="sans-serif" font-size="14" lengthAdjust="spacing" textLength="54" x="864.5" y="335.4951">numero</text><ellipse cx="855.5" cy="348.4453" fill="#000000" rx="3" ry="3" style="stroke:#000000;stroke-width:1.0;"/><text fill="#000000" font-family="sans-serif" font-size="14" lengthAdjust="spacing" textLength="44" x="864.5" y="351.792">annee</text><line style="stroke:#181818;stroke-width:1.0;" x1="845.5" x2="944.5" y1="359.0938" y2="359.0938"/><ellipse cx="855.5" cy="372.7422" fill="#000000" rx="3" ry="3" style="stroke:#000000;stroke-width:1.0;"/><text fill="#000000" font-family="sans-serif" font-size="14" lengthAdjust="spacing" textLength="31" x="864.5" y="376.0889">nom</text><ellipse cx="855.5" cy="389.0391" fill="#000000" rx="3" ry="3" style="stroke:#000000;stroke-width:1.0;"/><text fill="#000000" font-family="sans-serif" font-size="14" lengthAdjust="spacing" textLength="64" x="864.5" y="392.3857">dateDem</text><ellipse cx="855.5" cy="405.3359" fill="#000000" rx="3" ry="3" style="stroke:#000000;stroke-width:1.0;"/><text fill="#000000" font-family="sans-serif" font-size="14" lengthAdjust="spacing" textLength="41" x="864.5" y="408.6826">duree</text><ellipse cx="855.5" cy="421.6328" fill="#000000" rx="3" ry="3" style="stroke:#000000;stroke-width:1.0;"/><text fill="#000000" font-family="sans-serif" font-size="14" lengthAdjust="spacing" textLength="60" x="864.5" y="424.9795">nbrPlace</text><ellipse cx="855.5" cy="437.9297" fill="#000000" rx="3" ry="3" style="stroke:#000000;stroke-width:1.0;"/><text fill="#000000" font-family="sans-serif" font-size="14" lengthAdjust="spacing" textLength="34" x="864.5" y="441.2764">desc</text><ellipse cx="855.5" cy="454.2266" fill="#000000" rx="3" ry="3" style="stroke:#000000;stroke-width:1.0;"/><text fill="#000000" font-family="sans-serif" font-size="14" lengthAdjust="spacing" textLength="24" x="864.5" y="457.5732">prix</text><ellipse cx="855.5" cy="470.5234" fill="#000000" rx="3" ry="3" style="stroke:#000000;stroke-width:1.0;"/><text fill="#000000" font-family="sans-serif" font-size="14" lengthAdjust="spacing" textLength="72" x="864.5" y="473.8701">nbrActivit&#233;</text></g><!--class Activit?--><g id="elem_Activit&#233;"><rect codeLine="40" fill="#F1F1F1" height="80.5938" id="Activit&#233;" rx="2.5" ry="2.5" style="stroke:#181818;stroke-width:0.5;" width="106" x="842" y="640"/><ellipse cx="868.25" cy="656" fill="#ADD1B2" rx="11" ry="11" style="stroke:#181818;stroke-width:1.0;"/><path d="M872.3594,662 L864.6406,662 L864.6406,649.6094 L872.3594,649.6094 L872.3594,651.7656 L867.0938,651.7656 L867.0938,654.4375 L871.8594,654.4375 L871.8594,656.5938 L867.0938,656.5938 L867.0938,659.8438 L872.3594,659.8438 L872.3594,662 Z " fill="#000000"/><text fill="#000000" font-family="sans-serif" font-size="14" lengthAdjust="spacing" textLength="49" x="884.75" y="660.8467">Activit&#233;</text><line style="stroke:#181818;stroke-width:0.5;" x1="843" x2="947" y1="672" y2="672"/><ellipse cx="853" cy="685.6484" fill="#000000" rx="3" ry="3" style="stroke:#000000;stroke-width:1.0;"/><text fill="#000000" font-family="sans-serif" font-size="14" lengthAdjust="spacing" textLength="55" x="862" y="688.9951">position</text><line style="stroke:#181818;stroke-width:1.0;" x1="843" x2="947" y1="696.2969" y2="696.2969"/><ellipse cx="853" cy="709.9453" fill="#000000" rx="3" ry="3" style="stroke:#000000;stroke-width:1.0;"/><text fill="#000000" font-family="sans-serif" font-size="14" lengthAdjust="spacing" textLength="80" x="862" y="713.292">nomActivit&#233;</text></g><!--class CompteUtilisateur--><g id="elem_CompteUtilisateur"><rect codeLine="57" fill="#F1F1F1" height="64.2969" id="CompteUtilisateur" rx="2.5" ry="2.5" style="stroke:#181818;stroke-width:0.5;" width="155" x="311.5" y="352"/><ellipse cx="326.5" cy="368" fill="#ADD1B2" rx="11" ry="11" style="stroke:#181818;stroke-width:1.0;"/><path d="M330.6094,374 L322.8906,374 L322.8906,361.6094 L330.6094,361.6094 L330.6094,363.7656 L325.3438,363.7656 L325.3438,366.4375 L330.1094,366.4375 L330.1094,368.5938 L325.3438,368.5938 L325.3438,371.8438 L330.6094,371.8438 L330.6094,374 Z " fill="#000000"/><text fill="#000000" font-family="sans-serif" font-size="14" lengthAdjust="spacing" textLength="123" x="340.5" y="372.8467">CompteUtilisateur</text><line style="stroke:#181818;stroke-width:0.5;" x1="312.5" x2="465.5" y1="384" y2="384"/><ellipse cx="322.5" cy="397.6484" fill="#000000" rx="3" ry="3" style="stroke:#000000;stroke-width:1.0;"/><text fill="#000000" font-family="sans-serif" font-size="14" lengthAdjust="spacing" textLength="44" x="331.5" y="400.9951">idUser</text><line style="stroke:#181818;stroke-width:0.5;" x1="312.5" x2="465.5" y1="408.2969" y2="408.2969"/></g><!--class Lot--><g id="elem_Lot"><rect codeLine="61" fill="#F1F1F1" height="194.6719" id="Lot" rx="2.5" ry="2.5" style="stroke:#181818;stroke-width:0.5;" width="150" x="7" y="583"/><ellipse cx="67.25" cy="599" fill="#ADD1B2" rx="11" ry="11" style="stroke:#181818;stroke-width:1.0;"/><path d="M71.3594,605 L63.6406,605 L63.6406,592.6094 L71.3594,592.6094 L71.3594,594.7656 L66.0938,594.7656 L66.0938,597.4375 L70.8594,597.4375 L70.8594,599.5938 L66.0938,599.5938 L66.0938,602.8438 L71.3594,602.8438 L71.3594,605 Z " fill="#000000"/><text fill="#000000" font-family="sans-serif" font-size="14" lengthAdjust="spacing" textLength="21" x="87.75" y="603.8467">Lot</text><line style="stroke:#181818;stroke-width:0.5;" x1="8" x2="156" y1="615" y2="615"/><ellipse cx="18" cy="628.6484" fill="#000000" rx="3" ry="3" style="stroke:#000000;stroke-width:1.0;"/><text fill="#000000" font-family="sans-serif" font-size="14" lengthAdjust="spacing" textLength="53" x="27" y="631.9951">marque</text><ellipse cx="18" cy="644.9453" fill="#000000" rx="3" ry="3" style="stroke:#000000;stroke-width:1.0;"/><text fill="#000000" font-family="sans-serif" font-size="14" lengthAdjust="spacing" textLength="52" x="27" y="648.292">modele</text><ellipse cx="18" cy="661.2422" fill="#000000" rx="3" ry="3" style="stroke:#000000;stroke-width:1.0;"/><text fill="#000000" font-family="sans-serif" font-size="14" lengthAdjust="spacing" textLength="83" x="27" y="664.5889">anneeAchat</text><line style="stroke:#181818;stroke-width:1.0;" x1="8" x2="156" y1="671.8906" y2="671.8906"/><ellipse cx="18" cy="685.5391" fill="#000000" rx="3" ry="3" style="stroke:#000000;stroke-width:1.0;"/><text fill="#000000" font-family="sans-serif" font-size="14" lengthAdjust="spacing" textLength="65" x="27" y="688.8857">categorie</text><ellipse cx="18" cy="701.8359" fill="#000000" rx="3" ry="3" style="stroke:#000000;stroke-width:1.0;"/><text fill="#000000" font-family="sans-serif" font-size="14" lengthAdjust="spacing" textLength="64" x="27" y="705.1826">nbPieces</text><ellipse cx="18" cy="718.1328" fill="#000000" rx="3" ry="3" style="stroke:#000000;stroke-width:1.0;"/><text fill="#000000" font-family="sans-serif" font-size="14" lengthAdjust="spacing" textLength="61" x="27" y="721.4795">prixPerte</text><ellipse cx="18" cy="734.4297" fill="#000000" rx="3" ry="3" style="stroke:#000000;stroke-width:1.0;"/><text fill="#000000" font-family="sans-serif" font-size="14" lengthAdjust="spacing" textLength="62" x="27" y="737.7764">typeActiv</text><ellipse cx="18" cy="750.7266" fill="#000000" rx="3" ry="3" style="stroke:#000000;stroke-width:1.0;"/><text fill="#000000" font-family="sans-serif" font-size="14" lengthAdjust="spacing" textLength="114" x="27" y="754.0732">texte "optionnel"</text><ellipse cx="18" cy="767.0234" fill="#000000" rx="3" ry="3" style="stroke:#000000;stroke-width:1.0;"/><text fill="#000000" font-family="sans-serif" font-size="14" lengthAdjust="spacing" textLength="124" x="27" y="770.3701">anneePeremption</text></g><!--class PiecesLouees--><g id="elem_PiecesLouees"><rect codeLine="74" fill="#F1F1F1" height="64.2969" id="PiecesLouees" rx="2.5" ry="2.5" style="stroke:#181818;stroke-width:0.5;" width="146" x="192" y="648.5"/><ellipse cx="214.65" cy="664.5" fill="#ADD1B2" rx="11" ry="11" style="stroke:#181818;stroke-width:1.0;"/><path d="M218.7594,670.5 L211.0406,670.5 L211.0406,658.1094 L218.7594,658.1094 L218.7594,660.2656 L213.4938,660.2656 L213.4938,662.9375 L218.2594,662.9375 L218.2594,665.0938 L213.4938,665.0938 L213.4938,668.3438 L218.7594,668.3438 L218.7594,670.5 Z " fill="#000000"/><text fill="#000000" font-family="sans-serif" font-size="14" lengthAdjust="spacing" textLength="97" x="230.35" y="669.3467">PiecesLouees</text><line style="stroke:#181818;stroke-width:0.5;" x1="193" x2="337" y1="680.5" y2="680.5"/><ellipse cx="203" cy="694.1484" fill="#000000" rx="3" ry="3" style="stroke:#000000;stroke-width:1.0;"/><text fill="#000000" font-family="sans-serif" font-size="14" lengthAdjust="spacing" textLength="120" x="212" y="697.4951">nbrPiecesLouees</text><line style="stroke:#181818;stroke-width:0.5;" x1="193" x2="337" y1="704.7969" y2="704.7969"/></g><!--class Membre--><g id="elem_Membre"><rect codeLine="78" fill="#F1F1F1" height="145.7813" id="Membre" rx="2.5" ry="2.5" style="stroke:#181818;stroke-width:0.5;" width="121" x="433.5" y="607.5"/><ellipse cx="462.9" cy="623.5" fill="#ADD1B2" rx="11" ry="11" style="stroke:#181818;stroke-width:1.0;"/><path d="M467.0094,629.5 L459.2906,629.5 L459.2906,617.1094 L467.0094,617.1094 L467.0094,619.2656 L461.7438,619.2656 L461.7438,621.9375 L466.5094,621.9375 L466.5094,624.0938 L461.7438,624.0938 L461.7438,627.3438 L467.0094,627.3438 L467.0094,629.5 Z " fill="#000000"/><text fill="#000000" font-family="sans-serif" font-size="14" lengthAdjust="spacing" textLength="57" x="480.1" y="628.3467">Membre</text><line style="stroke:#181818;stroke-width:0.5;" x1="434.5" x2="553.5" y1="639.5" y2="639.5"/><ellipse cx="444.5" cy="653.1484" fill="#000000" rx="3" ry="3" style="stroke:#000000;stroke-width:1.0;"/><text fill="#000000" font-family="sans-serif" font-size="14" lengthAdjust="spacing" textLength="36" x="453.5" y="656.4951">email</text><ellipse cx="444.5" cy="669.4453" fill="#000000" rx="3" ry="3" style="stroke:#000000;stroke-width:1.0;"/><text fill="#000000" font-family="sans-serif" font-size="14" lengthAdjust="spacing" textLength="95" x="453.5" y="672.792">mot de passe</text><ellipse cx="444.5" cy="685.7422" fill="#000000" rx="3" ry="3" style="stroke:#000000;stroke-width:1.0;"/><text fill="#000000" font-family="sans-serif" font-size="14" lengthAdjust="spacing" textLength="44" x="453.5" y="689.0889">idUser</text><line style="stroke:#181818;stroke-width:1.0;" x1="434.5" x2="553.5" y1="696.3906" y2="696.3906"/><ellipse cx="444.5" cy="710.0391" fill="#000000" rx="3" ry="3" style="stroke:#000000;stroke-width:1.0;"/><text fill="#000000" font-family="sans-serif" font-size="14" lengthAdjust="spacing" textLength="31" x="453.5" y="713.3857">nom</text><ellipse cx="444.5" cy="726.3359" fill="#000000" rx="3" ry="3" style="stroke:#000000;stroke-width:1.0;"/><text fill="#000000" font-family="sans-serif" font-size="14" lengthAdjust="spacing" textLength="54" x="453.5" y="729.6826">prenom</text><ellipse cx="444.5" cy="742.6328" fill="#000000" rx="3" ry="3" style="stroke:#000000;stroke-width:1.0;"/><text fill="#000000" font-family="sans-serif" font-size="14" lengthAdjust="spacing" textLength="53" x="453.5" y="745.9795">adrPost</text></g><!--class Adh?rent--><g id="elem_Adh&#233;rent"><rect codeLine="89" fill="#F1F1F1" height="64.2969" id="Adh&#233;rent" rx="2.5" ry="2.5" style="stroke:#181818;stroke-width:0.5;" width="102" x="502" y="352"/><ellipse cx="519.7" cy="368" fill="#ADD1B2" rx="11" ry="11" style="stroke:#181818;stroke-width:1.0;"/><path d="M523.8094,374 L516.0906,374 L516.0906,361.6094 L523.8094,361.6094 L523.8094,363.7656 L518.5438,363.7656 L518.5438,366.4375 L523.3094,366.4375 L523.3094,368.5938 L518.5438,368.5938 L518.5438,371.8438 L523.8094,371.8438 L523.8094,374 Z " fill="#000000"/><text fill="#000000" font-family="sans-serif" font-size="14" lengthAdjust="spacing" textLength="64" x="534.3" y="372.8467">Adh&#233;rent</text><line style="stroke:#181818;stroke-width:0.5;" x1="503" x2="603" y1="384" y2="384"/><ellipse cx="513" cy="397.6484" fill="#000000" rx="3" ry="3" style="stroke:#000000;stroke-width:1.0;"/><text fill="#000000" font-family="sans-serif" font-size="14" lengthAdjust="spacing" textLength="76" x="522" y="400.9951">idAdherent</text><line style="stroke:#181818;stroke-width:0.5;" x1="503" x2="603" y1="408.2969" y2="408.2969"/></g><!--class R?s?rvationRefuge--><g id="elem_R&#233;s&#233;rvationRefuge"><rect codeLine="93" fill="#F1F1F1" height="178.375" id="R&#233;s&#233;rvationRefuge" rx="2.5" ry="2.5" style="stroke:#181818;stroke-width:0.5;" width="164" x="369" y="7"/><ellipse cx="384" cy="23" fill="#ADD1B2" rx="11" ry="11" style="stroke:#181818;stroke-width:1.0;"/><path d="M388.1094,29 L380.3906,29 L380.3906,16.6094 L388.1094,16.6094 L388.1094,18.7656 L382.8438,18.7656 L382.8438,21.4375 L387.6094,21.4375 L387.6094,23.5938 L382.8438,23.5938 L382.8438,26.8438 L388.1094,26.8438 L388.1094,29 Z " fill="#000000"/><text fill="#000000" font-family="sans-serif" font-size="14" lengthAdjust="spacing" textLength="132" x="398" y="27.8467">R&#233;s&#233;rvationRefuge</text><line style="stroke:#181818;stroke-width:0.5;" x1="370" x2="532" y1="39" y2="39"/><ellipse cx="380" cy="52.6484" fill="#000000" rx="3" ry="3" style="stroke:#000000;stroke-width:1.0;"/><text fill="#000000" font-family="sans-serif" font-size="14" lengthAdjust="spacing" textLength="12" x="389" y="55.9951">id</text><line style="stroke:#181818;stroke-width:1.0;" x1="370" x2="532" y1="63.2969" y2="63.2969"/><ellipse cx="380" cy="76.9453" fill="#000000" rx="3" ry="3" style="stroke:#000000;stroke-width:1.0;"/><text fill="#000000" font-family="sans-serif" font-size="14" lengthAdjust="spacing" textLength="31" x="389" y="80.292">date</text><ellipse cx="380" cy="93.2422" fill="#000000" rx="3" ry="3" style="stroke:#000000;stroke-width:1.0;"/><text fill="#000000" font-family="sans-serif" font-size="14" lengthAdjust="spacing" textLength="41" x="389" y="96.5889">heure</text><ellipse cx="380" cy="109.5391" fill="#000000" rx="3" ry="3" style="stroke:#000000;stroke-width:1.0;"/><text fill="#000000" font-family="sans-serif" font-size="14" lengthAdjust="spacing" textLength="45" x="389" y="112.8857">refuge</text><ellipse cx="380" cy="125.8359" fill="#000000" rx="3" ry="3" style="stroke:#000000;stroke-width:1.0;"/><text fill="#000000" font-family="sans-serif" font-size="14" lengthAdjust="spacing" textLength="126" x="389" y="129.1826">idMembreReserve</text><ellipse cx="380" cy="142.1328" fill="#000000" rx="3" ry="3" style="stroke:#000000;stroke-width:1.0;"/><text fill="#000000" font-family="sans-serif" font-size="14" lengthAdjust="spacing" textLength="58" x="389" y="145.4795">nbrNuits</text><ellipse cx="380" cy="158.4297" fill="#000000" rx="3" ry="3" style="stroke:#000000;stroke-width:1.0;"/><text fill="#000000" font-family="sans-serif" font-size="14" lengthAdjust="spacing" textLength="124" x="389" y="161.7764">nbrRepasReserve</text><ellipse cx="380" cy="174.7266" fill="#000000" rx="3" ry="3" style="stroke:#000000;stroke-width:1.0;"/><text fill="#000000" font-family="sans-serif" font-size="14" lengthAdjust="spacing" textLength="58" x="389" y="178.0732">prixTotal</text></g><!--class R?s?rvationFormation--><g id="elem_R&#233;s&#233;rvationFormation"><rect codeLine="105" fill="#F1F1F1" height="96.8906" id="R&#233;s&#233;rvationFormation" rx="2.5" ry="2.5" style="stroke:#181818;stroke-width:0.5;" width="183" x="803.5" y="47.5"/><ellipse cx="818.5" cy="63.5" fill="#ADD1B2" rx="11" ry="11" style="stroke:#181818;stroke-width:1.0;"/><path d="M822.6094,69.5 L814.8906,69.5 L814.8906,57.1094 L822.6094,57.1094 L822.6094,59.2656 L817.3438,59.2656 L817.3438,61.9375 L822.1094,61.9375 L822.1094,64.0938 L817.3438,64.0938 L817.3438,67.3438 L822.6094,67.3438 L822.6094,69.5 Z " fill="#000000"/><text fill="#000000" font-family="sans-serif" font-size="14" lengthAdjust="spacing" textLength="151" x="832.5" y="68.3467">R&#233;s&#233;rvationFormation</text><line style="stroke:#181818;stroke-width:0.5;" x1="804.5" x2="985.5" y1="79.5" y2="79.5"/><ellipse cx="814.5" cy="93.1484" fill="#000000" rx="3" ry="3" style="stroke:#000000;stroke-width:1.0;"/><text fill="#000000" font-family="sans-serif" font-size="14" lengthAdjust="spacing" textLength="12" x="823.5" y="96.4951">id</text><line style="stroke:#181818;stroke-width:1.0;" x1="804.5" x2="985.5" y1="103.7969" y2="103.7969"/><ellipse cx="814.5" cy="117.4453" fill="#000000" rx="3" ry="3" style="stroke:#000000;stroke-width:1.0;"/><text fill="#000000" font-family="sans-serif" font-size="14" lengthAdjust="spacing" textLength="76" x="823.5" y="120.792">idAdh&#233;rent</text><ellipse cx="814.5" cy="133.7422" fill="#000000" rx="3" ry="3" style="stroke:#000000;stroke-width:1.0;"/><text fill="#000000" font-family="sans-serif" font-size="14" lengthAdjust="spacing" textLength="115" x="823.5" y="137.0889">formationInscrite</text></g><!--class LocationMat?riel--><g id="elem_LocationMat&#233;riel"><rect codeLine="114" fill="#F1F1F1" height="145.7813" id="LocationMat&#233;riel" rx="2.5" ry="2.5" style="stroke:#181818;stroke-width:0.5;" width="148" x="186" y="23"/><ellipse cx="202.8" cy="39" fill="#ADD1B2" rx="11" ry="11" style="stroke:#181818;stroke-width:1.0;"/><path d="M206.9094,45 L199.1906,45 L199.1906,32.6094 L206.9094,32.6094 L206.9094,34.7656 L201.6438,34.7656 L201.6438,37.4375 L206.4094,37.4375 L206.4094,39.5938 L201.6438,39.5938 L201.6438,42.8438 L206.9094,42.8438 L206.9094,45 Z " fill="#000000"/><text fill="#000000" font-family="sans-serif" font-size="14" lengthAdjust="spacing" textLength="112" x="217.2" y="43.8467">LocationMat&#233;riel</text><line style="stroke:#181818;stroke-width:0.5;" x1="187" x2="333" y1="55" y2="55"/><ellipse cx="197" cy="68.6484" fill="#000000" rx="3" ry="3" style="stroke:#000000;stroke-width:1.0;"/><text fill="#000000" font-family="sans-serif" font-size="14" lengthAdjust="spacing" textLength="12" x="206" y="71.9951">id</text><line style="stroke:#181818;stroke-width:1.0;" x1="187" x2="333" y1="79.2969" y2="79.2969"/><ellipse cx="197" cy="92.9453" fill="#000000" rx="3" ry="3" style="stroke:#000000;stroke-width:1.0;"/><text fill="#000000" font-family="sans-serif" font-size="14" lengthAdjust="spacing" textLength="63" x="206" y="96.292">adh&#233;rent</text><ellipse cx="197" cy="109.2422" fill="#000000" rx="3" ry="3" style="stroke:#000000;stroke-width:1.0;"/><text fill="#000000" font-family="sans-serif" font-size="14" lengthAdjust="spacing" textLength="112" x="206" y="112.5889">nbPiecesReserv</text><ellipse cx="197" cy="125.5391" fill="#000000" rx="3" ry="3" style="stroke:#000000;stroke-width:1.0;"/><text fill="#000000" font-family="sans-serif" font-size="14" lengthAdjust="spacing" textLength="76" x="206" y="128.8857">dateR&#233;cup</text><ellipse cx="197" cy="141.8359" fill="#000000" rx="3" ry="3" style="stroke:#000000;stroke-width:1.0;"/><text fill="#000000" font-family="sans-serif" font-size="14" lengthAdjust="spacing" textLength="78" x="206" y="145.1826">dateRetour</text><ellipse cx="197" cy="158.1328" fill="#000000" rx="3" ry="3" style="stroke:#000000;stroke-width:1.0;"/><text fill="#000000" font-family="sans-serif" font-size="14" lengthAdjust="spacing" textLength="122" x="206" y="161.4795">nbPiecesPerdues</text></g><!--class ListeAttente--><g id="elem_ListeAttente"><rect codeLine="129" fill="#F1F1F1" height="96.8906" id="ListeAttente" rx="2.5" ry="2.5" style="stroke:#181818;stroke-width:0.5;" width="115" x="1016.5" y="335.5"/><ellipse cx="1031.5" cy="351.5" fill="#ADD1B2" rx="11" ry="11" style="stroke:#181818;stroke-width:1.0;"/><path d="M1035.6094,357.5 L1027.8906,357.5 L1027.8906,345.1094 L1035.6094,345.1094 L1035.6094,347.2656 L1030.3438,347.2656 L1030.3438,349.9375 L1035.1094,349.9375 L1035.1094,352.0938 L1030.3438,352.0938 L1030.3438,355.3438 L1035.6094,355.3438 L1035.6094,357.5 Z " fill="#000000"/><text fill="#000000" font-family="sans-serif" font-size="14" lengthAdjust="spacing" textLength="83" x="1045.5" y="356.3467">ListeAttente</text><line style="stroke:#181818;stroke-width:0.5;" x1="1017.5" x2="1130.5" y1="367.5" y2="367.5"/><ellipse cx="1027.5" cy="381.1484" fill="#000000" rx="3" ry="3" style="stroke:#000000;stroke-width:1.0;"/><text fill="#000000" font-family="sans-serif" font-size="14" lengthAdjust="spacing" textLength="76" x="1036.5" y="384.4951">idAdh&#233;rent</text><ellipse cx="1027.5" cy="397.4453" fill="#000000" rx="3" ry="3" style="stroke:#000000;stroke-width:1.0;"/><text fill="#000000" font-family="sans-serif" font-size="14" lengthAdjust="spacing" textLength="81" x="1036.5" y="400.792">idFormation</text><ellipse cx="1027.5" cy="413.7422" fill="#000000" rx="3" ry="3" style="stroke:#000000;stroke-width:1.0;"/><text fill="#000000" font-family="sans-serif" font-size="14" lengthAdjust="spacing" textLength="31" x="1036.5" y="417.0889">rang</text><line style="stroke:#181818;stroke-width:1.0;" x1="1017.5" x2="1130.5" y1="424.3906" y2="424.3906"/></g><polygon fill="#F1F1F1" points="231,372,243,384,231,396,219,384,231,372" style="stroke:#181818;stroke-width:0.5;"/><polygon fill="#F1F1F1" points="702,668.5,714,680.5,702,692.5,690,680.5,702,668.5" style="stroke:#181818;stroke-width:0.5;"/><!--link R?s?rvationFormation to ListeAttente--><g id="link_R&#233;s&#233;rvationFormation_ListeAttente"><path codeLine="136" d="M968.75,144.56 C993.16,163.71 1018.32,187.75 1035,215 C1057.43,251.65 1066.97,300 1071.02,335.41 " fill="none" id="R&#233;s&#233;rvationFormation-ListeAttente" style="stroke:#181818;stroke-width:1.0;"/><polygon fill="#000000" points="1050.3616,227.9735,1048.6798,218.6128,1043.499,221.3891,1050.3616,227.9735" style="stroke:#000000;stroke-width:1.0;"/><text fill="#000000" font-family="sans-serif" font-size="13" lengthAdjust="spacing" textLength="87" x="1057" y="228.0669">AListeAttente</text><text fill="#000000" font-family="sans-serif" font-size="13" lengthAdjust="spacing" textLength="23" x="954.5039" y="164.5274">0..*</text><text fill="#000000" font-family="sans-serif" font-size="13" lengthAdjust="spacing" textLength="24" x="1044.9134" y="324.6063">0..1</text></g><!--link Formation to Activit?--><g id="link_Formation_Activit&#233;"><path codeLine="140" d="M895,481.84 C895,535.65 895,599.68 895,639.97 " fill="none" id="Formation-Activit&#233;" style="stroke:#181818;stroke-width:1.0;"/><polygon fill="#000000" points="900,549.5664,902.9389,540.5213,897.0611,540.5213,900,549.5664" style="stroke:#000000;stroke-width:1.0;"/><text fill="#000000" font-family="sans-serif" font-size="13" lengthAdjust="spacing" textLength="99" x="909" y="549.0669">proposeActivit&#233;</text><text fill="#000000" font-family="sans-serif" font-size="13" lengthAdjust="spacing" textLength="23" x="871.1914" y="501.3298">1..*</text><text fill="#000000" font-family="sans-serif" font-size="13" lengthAdjust="spacing" textLength="23" x="870.0234" y="628.8281">1..*</text></g><!--link CompteUtilisateur to Membre--><g id="link_CompteUtilisateur_Membre"><path codeLine="143" d="M385.9,416.12 C383.6,450.68 383.31,507.6 400,553 C407.74,574.06 420.17,594.61 433.48,612.81 " fill="none" id="CompteUtilisateur-Membre" style="stroke:#181818;stroke-width:1.0;"/><polygon fill="#000000" points="403.8244,539.7066,403.0946,549.1891,408.8076,547.8071,403.8244,539.7066" style="stroke:#000000;stroke-width:1.0;"/><text fill="#000000" font-family="sans-serif" font-size="13" lengthAdjust="spacing" textLength="105" x="414" y="549.0669">poss&#232;deCompte</text><text fill="#000000" font-family="sans-serif" font-size="13" lengthAdjust="spacing" textLength="24" x="358.7856" y="436.3416">1..1</text><text fill="#000000" font-family="sans-serif" font-size="13" lengthAdjust="spacing" textLength="24" x="401.5481" y="601.6722">1..1</text></g><!--link Adh?rent to Membre--><g id="link_Adh&#233;rent_Membre"><path codeLine="144" d="M549.45,416.15 C545.34,450.02 537.85,505.65 528,553 C524.32,570.7 524.2626,572.2137 519.5726,589.8637 " fill="none" id="Adh&#233;rent-to-Membre" style="stroke:#181818;stroke-width:1.0;"/><polygon fill="none" points="514.95,607.26,525.3714,591.4046,513.7738,588.3228,514.95,607.26" style="stroke:#181818;stroke-width:1.0;"/></g><!--link R?s?rvationFormation to Formation--><g id="link_R&#233;s&#233;rvationFormation_Formation"><path codeLine="146" d="M893.51,144.65 C892.91,166.14 892.29,191.85 892,215 C891.71,238.04 891.88,262.86 892.26,286.17 " fill="none" id="R&#233;s&#233;rvationFormation-Formation" style="stroke:#181818;stroke-width:1.0;"/><polygon fill="#000000" points="896.9558,228.5662,899.9745,219.5474,894.0969,219.4955,896.9558,228.5662" style="stroke:#000000;stroke-width:1.0;"/><text fill="#000000" font-family="sans-serif" font-size="13" lengthAdjust="spacing" textLength="124" x="906" y="228.0669">concerneFormation</text><text fill="#000000" font-family="sans-serif" font-size="13" lengthAdjust="spacing" textLength="23" x="868.6833" y="164.63">0..*</text><text fill="#000000" font-family="sans-serif" font-size="13" lengthAdjust="spacing" textLength="24" x="867.1775" y="275.5186">1..1</text></g><!--link LocationMat?riel to CompteUtilisateur--><g id="link_LocationMat&#233;riel_CompteUtilisateur"><path codeLine="147" d="M288.35,169.2 C296.65,189.63 305.94,211.79 315,232 C333.8,273.96 357.48,321.45 372.92,351.77 " fill="none" id="LocationMat&#233;riel-CompteUtilisateur" style="stroke:#181818;stroke-width:1.0;"/><polygon fill="#000000" points="317.8984,219.0295,319.0335,228.4721,324.3669,226.0016,317.8984,219.0295" style="stroke:#000000;stroke-width:1.0;"/><text fill="#000000" font-family="sans-serif" font-size="13" lengthAdjust="spacing" textLength="78" x="329" y="228.0669">loueMat&#233;riel</text><text fill="#000000" font-family="sans-serif" font-size="13" lengthAdjust="spacing" textLength="23" x="266.9034" y="188.7226">0..*</text><text fill="#000000" font-family="sans-serif" font-size="13" lengthAdjust="spacing" textLength="24" x="343.3918" y="340.9989">1..1</text></g><!--link R?s?rvationFormation to CompteUtilisateur--><g id="link_R&#233;s&#233;rvationFormation_CompteUtilisateur"><path codeLine="148" d="M837.16,144.55 C797.57,174.51 742.56,211.32 688,232 C602.72,264.33 563.99,216.41 485,262 C448.65,282.98 420.87,323.53 404.76,351.88 " fill="none" id="R&#233;s&#233;rvationFormation-CompteUtilisateur" style="stroke:#181818;stroke-width:1.0;"/><polygon fill="#000000" points="733.5085,221.4046,724.0819,222.6653,726.6232,227.9654,733.5085,221.4046" style="stroke:#000000;stroke-width:1.0;"/><text fill="#000000" font-family="sans-serif" font-size="13" lengthAdjust="spacing" textLength="113" x="738" y="228.0669">r&#233;serveFormation</text><text fill="#000000" font-family="sans-serif" font-size="13" lengthAdjust="spacing" textLength="23" x="804.4091" y="164.516">0..*</text><text fill="#000000" font-family="sans-serif" font-size="13" lengthAdjust="spacing" textLength="24" x="381.5355" y="340.7584">1..1</text></g><!--link R?s?rvationRefuge to CompteUtilisateur--><g id="link_R&#233;s&#233;rvationRefuge_CompteUtilisateur"><path codeLine="149" d="M426.21,185.06 C423.65,195.13 421.18,205.27 419,215 C408.36,262.41 399.04,318.02 393.72,351.87 " fill="none" id="R&#233;s&#233;rvationRefuge-CompteUtilisateur" style="stroke:#181818;stroke-width:1.0;"/><polygon fill="#000000" points="424.9559,218.6586,420.3419,226.975,426.1114,228.0987,424.9559,218.6586" style="stroke:#000000;stroke-width:1.0;"/><text fill="#000000" font-family="sans-serif" font-size="13" lengthAdjust="spacing" textLength="92" x="433" y="228.0669">r&#233;serveRefuge</text><text fill="#000000" font-family="sans-serif" font-size="13" lengthAdjust="spacing" textLength="23" x="400.0913" y="205.4146">0..*</text><text fill="#000000" font-family="sans-serif" font-size="13" lengthAdjust="spacing" textLength="24" x="397.1685" y="340.7463">1..1</text></g><!--link R?s?rvationRefuge to Refuge--><g id="link_R&#233;s&#233;rvationRefuge_Refuge"><path codeLine="150" d="M517.71,185.11 C532.56,201.79 548.98,218.28 566,232 C587.98,249.72 601.13,242.98 622,262 C628.05,267.51 633.85,273.58 639.37,279.96 " fill="none" id="R&#233;s&#233;rvationRefuge-Refuge" style="stroke:#181818;stroke-width:1.0;"/><polygon fill="#000000" points="574.9432,226.6407,569.6169,218.7615,566.0029,223.397,574.9432,226.6407" style="stroke:#000000;stroke-width:1.0;"/><text fill="#000000" font-family="sans-serif" font-size="13" lengthAdjust="spacing" textLength="103" x="580" y="228.0669">concerneRefuge</text><text fill="#000000" font-family="sans-serif" font-size="13" lengthAdjust="spacing" textLength="23" x="499.4546" y="205.4689">0..*</text><text fill="#000000" font-family="sans-serif" font-size="13" lengthAdjust="spacing" textLength="24" x="607.6738" y="265.5537">1..1</text></g><!--link LocationMat?riel to diamond1--><g id="link_LocationMat&#233;riel_diamond1"><path codeLine="154" d="M252.68,169.17 C245.53,239.66 235.27,340.88 232.02,372.89 " fill="none" id="LocationMat&#233;riel-diamond1" style="stroke:#181818;stroke-width:1.0;"/><text fill="#000000" font-family="sans-serif" font-size="13" lengthAdjust="spacing" textLength="23" x="227.8862" y="188.9425">0..*</text></g><!--link diamond1 to Lot--><g id="link_diamond1_Lot"><path codeLine="155" d="M227.17,392.58 C213.73,419.13 167.59,510.34 130.88,582.88 " fill="none" id="diamond1-Lot" style="stroke:#181818;stroke-width:1.0;"/><polygon fill="#000000" points="160.2574,540.105,153.5514,546.8489,158.796,549.5026,160.2574,540.105" style="stroke:#000000;stroke-width:1.0;"/><text fill="#000000" font-family="sans-serif" font-size="13" lengthAdjust="spacing" textLength="51" x="167" y="549.0669">estLou&#233;</text><text fill="#000000" font-family="sans-serif" font-size="13" lengthAdjust="spacing" textLength="24" x="109.7036" y="571.9163">1..1</text></g><!--link diamond1 to PiecesLouees--><g id="link_diamond1_PiecesLouees"><path codeLine="156" d="M232.17,395.14 C236.79,435.19 253.9,583.39 261.42,648.49 " fill="none" id="diamond1-PiecesLouees" style="stroke:#181818;stroke-width:1.0;stroke-dasharray:7.0,7.0;"/></g><!--link Refuge to diamond2--><g id="link_Refuge_diamond2"><path codeLine="160" d="M702,506.06 C702,570.15 702,641.09 702,668.16 " fill="none" id="Refuge-diamond2" style="stroke:#181818;stroke-width:1.0;"/><polygon fill="#000000" points="707,549.5664,709.9389,540.5213,704.0611,540.5213,707,549.5664" style="stroke:#000000;stroke-width:1.0;"/><text fill="#000000" font-family="sans-serif" font-size="13" lengthAdjust="spacing" textLength="91" x="716" y="549.0669">proposeRepas</text><text fill="#000000" font-family="sans-serif" font-size="13" lengthAdjust="spacing" textLength="23" x="678.3352" y="525.6336">1..*</text></g><!--link diamond2 to Repas--><g id="link_diamond2_Repas"><path codeLine="161" d="M699.4,690.09 C691.56,716.02 667.85,794.43 654.46,838.7 " fill="none" id="diamond2-Repas" style="stroke:#181818;stroke-width:1.0;"/><text fill="#000000" font-family="sans-serif" font-size="13" lengthAdjust="spacing" textLength="23" x="631.0584" y="827.9151">1..*</text></g><!--link diamond2 to Prix--><g id="link_diamond2_Prix"><path codeLine="162" d="M704.55,690.09 C712.25,716.02 735.55,794.43 748.7,838.7 " fill="none" id="diamond2-Prix" style="stroke:#181818;stroke-width:1.0;stroke-dasharray:7.0,7.0;"/></g><!--SRC=[bLRDRXit4BxlKmnqaMrOSXMW5q4L8CH9OC1f12Dv07ftR1FP9JVy4MAaVfSUcxw6Ngmp97T9MKdhNgpP-VtcbqRbf7k46xppzmZVgZF0MITaMyrcH2lTyL_VVSIM28lrEzH4DCBX1xzBr5iq7RBUhRd1NjX8NchJIKEqmw-EnUwnnwrun0wLey_UoA-_Unb4J5TFLOK36l92OAQ49e29nj4v0SkQMp8Cg9zvU4l1XPDQ1I4bW8Pn2wKGozGO_YK6oXjCIMnRKJFPeAq7rq6mgPtSIRV_NaGQUH6lRCRGrSKKQgsS4L8v1D7thOGbzDhAW6prMuPvKde_XUa5nqsA8zw3y1VJ1E2z88wHs8PKEs6-U0RVwGPR77BUr0_2LK_abmoh3mfwz0wakYDJDF35Jxs2rxhh7NvoifMMwk8DOnR6IOe4-p-1L3RD0rjG0ybL0d1ina1ayycYAGfrhTr_8mofrkJbNbDAeUfRYJNQr8Sjcd6MGZc6-OA9xhbO2jl9u9AKiGlSScA2kslj4MqS3cfumIjKtsDtQz9If37iA8a6WURGOawo6AYUYXC8qPYjjYws2ZOxhA4LD6Kq17Le-JdG30Xl1DVLYTiMStMf8JBAMaBPxV_kw4SuP-IjTvQaI89a557EOUD1oHqA7oTj268b-_S44zWRD4RBa8FPVoVcZlXU8ToD2wDzOBGwUc3LRXYnW7d7z9r4TXqB06Z9fL0seygfv479l3GXnC0mJCNg4ofIseNOnLMIJQmoBopzFD2OyQy96a4Uwt238QdOLpuljZXCMSYpz54xqVuizE416Q87o6a1pdBDhfIj3LyoEW2q10utpf5A-3P2tSEKIXK4q4n5afMR4KjzkCb3J5547BOX9fBAGRXhtmyVwBGtXIejGUFZMDFclx7kalfqNO0ykHhx0D_wpq_dSDKKsGVE3ILnIawlSluyF-5wgBhezabHeMYGNPK6-V0L1_EqE2ebmZmjOo7ACnjhdDw5dpHnyijyVZQ1sInGYycX_oLi3hxNSMSzhRkaeVuLn71vRHppWuqvhm0E3lsF5f7Ne82p6E54AhyYz40OJQSVCol2cLmNYnWs3fN1Uy9DXGMhlGsGa1UsrSvEW6CU7sUEk1XZ4vNEN7YPxFwl1gCDhAhSxDdiZtLIV4cDe-CiMd9zQZGACszT7S_zaOjZ-4jApcCsMRqOpezy3KSmcptpbqxG_tAMR5xeAV5pYHA3khvQGoD5frMpgFwrMgFMG1J- -TrTyhpG-qQ3iiewy_d1QrZ6UqLTJdWNpuAyoYCQ_qzRLwCa3tJyNsqKS2WwkVy0]--></g></svg>